<svg width="660" height="404" viewBox="0 0 660 404" fill="none" xmlns="http://www.w3.org/2000/svg">
<g opacity="0.05">
<circle cx="8.81691" cy="137.29" r="8.81679" fill="#C4C4C4"/>
<circle cx="8.81716" cy="51.6413" r="8.81679" fill="#C4C4C4"/>
<circle cx="8.81691" cy="222.939" r="8.81679" fill="#C4C4C4"/>
<circle cx="8.81691" cy="308.588" r="8.81679" fill="#C4C4C4"/>
<circle cx="8.81679" cy="394.237" r="8.81679" fill="#C4C4C4"/>
<circle cx="8.81679" cy="94.4658" r="8.81679" fill="#C4C4C4"/>
<circle cx="8.81764" cy="8.81746" r="8.81679" fill="#C4C4C4"/>
<circle cx="8.81716" cy="180.115" r="8.81679" fill="#C4C4C4"/>
<circle cx="8.81691" cy="265.763" r="8.81679" fill="#C4C4C4"/>
<circle cx="8.81691" cy="351.412" r="8.81679" fill="#C4C4C4"/>
<circle cx="351.412" cy="137.29" r="8.81679" fill="#C4C4C4"/>
<circle cx="351.412" cy="51.6414" r="8.81679" fill="#C4C4C4"/>
<circle cx="351.412" cy="222.939" r="8.81679" fill="#C4C4C4"/>
<circle cx="351.412" cy="308.588" r="8.81679" fill="#C4C4C4"/>
<circle cx="351.412" cy="394.236" r="8.81679" fill="#C4C4C4"/>
<circle cx="351.412" cy="94.4658" r="8.81679" fill="#C4C4C4"/>
<circle cx="351.412" cy="8.81685" r="8.81679" fill="#C4C4C4"/>
<circle cx="351.412" cy="180.115" r="8.81679" fill="#C4C4C4"/>
<circle cx="351.412" cy="265.763" r="8.81679" fill="#C4C4C4"/>
<circle cx="351.412" cy="351.412" r="8.81679" fill="#C4C4C4"/>
<circle cx="180.115" cy="137.29" r="8.81679" fill="#C4C4C4"/>
<circle cx="180.115" cy="51.6414" r="8.81679" fill="#C4C4C4"/>
<circle cx="180.115" cy="222.939" r="8.81679" fill="#C4C4C4"/>
<circle cx="180.115" cy="308.588" r="8.81679" fill="#C4C4C4"/>
<circle cx="180.115" cy="394.237" r="8.81679" fill="#C4C4C4"/>
<circle cx="180.115" cy="94.4658" r="8.81679" fill="#C4C4C4"/>
<circle cx="180.115" cy="8.81679" r="8.81679" fill="#C4C4C4"/>
<circle cx="180.115" cy="180.114" r="8.81679" fill="#C4C4C4"/>
<circle cx="180.115" cy="265.763" r="8.81679" fill="#C4C4C4"/>
<circle cx="180.115" cy="351.412" r="8.81679" fill="#C4C4C4"/>
<circle cx="522.71" cy="137.29" r="8.81679" fill="#C4C4C4"/>
<circle cx="522.71" cy="51.6413" r="8.81679" fill="#C4C4C4"/>
<circle cx="522.71" cy="222.939" r="8.81679" fill="#C4C4C4"/>
<circle cx="522.71" cy="308.588" r="8.81679" fill="#C4C4C4"/>
<circle cx="522.71" cy="394.237" r="8.81679" fill="#C4C4C4"/>
<circle cx="522.71" cy="94.4658" r="8.81679" fill="#C4C4C4"/>
<circle cx="522.71" cy="8.81703" r="8.81679" fill="#C4C4C4"/>
<circle cx="522.71" cy="180.114" r="8.81679" fill="#C4C4C4"/>
<circle cx="522.71" cy="265.764" r="8.81679" fill="#C4C4C4"/>
<circle cx="522.71" cy="351.412" r="8.81679" fill="#C4C4C4"/>
<circle cx="51.6413" cy="137.29" r="8.81679" fill="#C4C4C4"/>
<circle cx="51.6413" cy="51.6414" r="8.81679" fill="#C4C4C4"/>
<circle cx="51.6415" cy="222.939" r="8.81679" fill="#C4C4C4"/>
<circle cx="51.6415" cy="308.588" r="8.81679" fill="#C4C4C4"/>
<circle cx="51.6413" cy="394.237" r="8.81679" fill="#C4C4C4"/>
<circle cx="51.6415" cy="94.4658" r="8.81679" fill="#C4C4C4"/>
<circle cx="51.6413" cy="8.81679" r="8.81679" fill="#C4C4C4"/>
<circle cx="51.6415" cy="180.114" r="8.81679" fill="#C4C4C4"/>
<circle cx="51.6413" cy="265.763" r="8.81679" fill="#C4C4C4"/>
<circle cx="51.6415" cy="351.412" r="8.81679" fill="#C4C4C4"/>
<circle cx="394.237" cy="137.29" r="8.81679" fill="#C4C4C4"/>
<circle cx="394.237" cy="51.6412" r="8.81679" fill="#C4C4C4"/>
<circle cx="394.237" cy="222.939" r="8.81679" fill="#C4C4C4"/>
<circle cx="394.236" cy="308.588" r="8.81679" fill="#C4C4C4"/>
<circle cx="394.237" cy="394.237" r="8.81679" fill="#C4C4C4"/>
<circle cx="394.237" cy="94.4656" r="8.81679" fill="#C4C4C4"/>
<circle cx="394.237" cy="8.81703" r="8.81679" fill="#C4C4C4"/>
<circle cx="394.236" cy="180.114" r="8.81679" fill="#C4C4C4"/>
<circle cx="394.237" cy="265.764" r="8.81679" fill="#C4C4C4"/>
<circle cx="394.237" cy="351.412" r="8.81679" fill="#C4C4C4"/>
<circle cx="222.939" cy="137.29" r="8.81679" fill="#C4C4C4"/>
<circle cx="222.939" cy="51.6414" r="8.81679" fill="#C4C4C4"/>
<circle cx="222.939" cy="222.939" r="8.81679" fill="#C4C4C4"/>
<circle cx="222.939" cy="308.588" r="8.81679" fill="#C4C4C4"/>
<circle cx="222.939" cy="394.237" r="8.81679" fill="#C4C4C4"/>
<circle cx="222.939" cy="94.4658" r="8.81679" fill="#C4C4C4"/>
<circle cx="222.939" cy="8.81697" r="8.81679" fill="#C4C4C4"/>
<circle cx="222.939" cy="180.115" r="8.81679" fill="#C4C4C4"/>
<circle cx="222.939" cy="265.763" r="8.81679" fill="#C4C4C4"/>
<circle cx="222.939" cy="351.412" r="8.81679" fill="#C4C4C4"/>
<circle cx="565.534" cy="137.29" r="8.81679" fill="#C4C4C4"/>
<circle cx="565.534" cy="51.6413" r="8.81679" fill="#C4C4C4"/>
<circle cx="565.534" cy="222.939" r="8.81679" fill="#C4C4C4"/>
<circle cx="565.534" cy="308.588" r="8.81679" fill="#C4C4C4"/>
<circle cx="565.534" cy="394.237" r="8.81679" fill="#C4C4C4"/>
<circle cx="565.534" cy="94.4658" r="8.81679" fill="#C4C4C4"/>
<circle cx="565.534" cy="8.81685" r="8.81679" fill="#C4C4C4"/>
<circle cx="565.534" cy="180.115" r="8.81679" fill="#C4C4C4"/>
<circle cx="565.534" cy="265.763" r="8.81679" fill="#C4C4C4"/>
<circle cx="565.534" cy="351.412" r="8.81679" fill="#C4C4C4"/>
<circle cx="94.4657" cy="137.29" r="8.81679" fill="#C4C4C4"/>
<circle cx="94.4657" cy="51.6413" r="8.81679" fill="#C4C4C4"/>
<circle cx="94.4657" cy="222.939" r="8.81679" fill="#C4C4C4"/>
<circle cx="94.4656" cy="308.588" r="8.81679" fill="#C4C4C4"/>
<circle cx="94.466" cy="394.237" r="8.81679" fill="#C4C4C4"/>
<circle cx="94.4657" cy="94.4657" r="8.81679" fill="#C4C4C4"/>
<circle cx="94.4657" cy="8.81703" r="8.81679" fill="#C4C4C4"/>
<circle cx="94.4656" cy="180.115" r="8.81679" fill="#C4C4C4"/>
<circle cx="94.466" cy="265.763" r="8.81679" fill="#C4C4C4"/>
<circle cx="94.4657" cy="351.412" r="8.81679" fill="#C4C4C4"/>
<circle cx="437.061" cy="137.29" r="8.81679" fill="#C4C4C4"/>
<circle cx="437.061" cy="51.6414" r="8.81679" fill="#C4C4C4"/>
<circle cx="437.061" cy="222.939" r="8.81679" fill="#C4C4C4"/>
<circle cx="437.061" cy="308.588" r="8.81679" fill="#C4C4C4"/>
<circle cx="437.061" cy="394.237" r="8.81679" fill="#C4C4C4"/>
<circle cx="437.061" cy="94.4658" r="8.81679" fill="#C4C4C4"/>
<circle cx="437.061" cy="8.81685" r="8.81679" fill="#C4C4C4"/>
<circle cx="437.061" cy="180.114" r="8.81679" fill="#C4C4C4"/>
<circle cx="437.061" cy="265.763" r="8.81679" fill="#C4C4C4"/>
<circle cx="437.061" cy="351.412" r="8.81679" fill="#C4C4C4"/>
<circle cx="265.763" cy="137.29" r="8.81679" fill="#C4C4C4"/>
<circle cx="265.763" cy="51.6412" r="8.81679" fill="#C4C4C4"/>
<circle cx="265.763" cy="222.939" r="8.81679" fill="#C4C4C4"/>
<circle cx="265.764" cy="308.588" r="8.81679" fill="#C4C4C4"/>
<circle cx="265.763" cy="394.237" r="8.81679" fill="#C4C4C4"/>
<circle cx="265.763" cy="94.4658" r="8.81679" fill="#C4C4C4"/>
<circle cx="265.764" cy="8.81697" r="8.81679" fill="#C4C4C4"/>
<circle cx="265.763" cy="180.114" r="8.81679" fill="#C4C4C4"/>
<circle cx="265.763" cy="265.764" r="8.81679" fill="#C4C4C4"/>
<circle cx="265.763" cy="351.412" r="8.81679" fill="#C4C4C4"/>
<circle cx="608.359" cy="137.29" r="8.81679" fill="#C4C4C4"/>
<circle cx="608.359" cy="51.6414" r="8.81679" fill="#C4C4C4"/>
<circle cx="608.359" cy="222.939" r="8.81679" fill="#C4C4C4"/>
<circle cx="608.359" cy="308.588" r="8.81679" fill="#C4C4C4"/>
<circle cx="608.359" cy="394.236" r="8.81679" fill="#C4C4C4"/>
<circle cx="608.359" cy="94.4657" r="8.81679" fill="#C4C4C4"/>
<circle cx="608.359" cy="8.81685" r="8.81679" fill="#C4C4C4"/>
<circle cx="608.359" cy="180.115" r="8.81679" fill="#C4C4C4"/>
<circle cx="608.359" cy="265.763" r="8.81679" fill="#C4C4C4"/>
<circle cx="608.359" cy="351.412" r="8.81679" fill="#C4C4C4"/>
<circle cx="137.29" cy="137.29" r="8.81679" fill="#C4C4C4"/>
<circle cx="137.29" cy="51.6414" r="8.81679" fill="#C4C4C4"/>
<circle cx="137.29" cy="222.939" r="8.81679" fill="#C4C4C4"/>
<circle cx="137.29" cy="308.588" r="8.81679" fill="#C4C4C4"/>
<circle cx="137.29" cy="394.237" r="8.81679" fill="#C4C4C4"/>
<circle cx="137.29" cy="94.4658" r="8.81679" fill="#C4C4C4"/>
<circle cx="137.29" cy="8.81697" r="8.81679" fill="#C4C4C4"/>
<circle cx="137.29" cy="180.115" r="8.81679" fill="#C4C4C4"/>
<circle cx="137.29" cy="265.763" r="8.81679" fill="#C4C4C4"/>
<circle cx="137.29" cy="351.412" r="8.81679" fill="#C4C4C4"/>
<circle cx="479.885" cy="137.29" r="8.81679" fill="#C4C4C4"/>
<circle cx="479.885" cy="51.6414" r="8.81679" fill="#C4C4C4"/>
<circle cx="479.886" cy="222.939" r="8.81679" fill="#C4C4C4"/>
<circle cx="479.885" cy="308.588" r="8.81679" fill="#C4C4C4"/>
<circle cx="479.885" cy="394.236" r="8.81679" fill="#C4C4C4"/>
<circle cx="479.886" cy="94.4658" r="8.81679" fill="#C4C4C4"/>
<circle cx="479.885" cy="8.81685" r="8.81679" fill="#C4C4C4"/>
<circle cx="479.885" cy="180.115" r="8.81679" fill="#C4C4C4"/>
<circle cx="479.885" cy="265.763" r="8.81679" fill="#C4C4C4"/>
<circle cx="479.885" cy="351.412" r="8.81679" fill="#C4C4C4"/>
<circle cx="308.588" cy="137.29" r="8.81679" fill="#C4C4C4"/>
<circle cx="308.588" cy="51.6416" r="8.81679" fill="#C4C4C4"/>
<circle cx="308.588" cy="222.939" r="8.81679" fill="#C4C4C4"/>
<circle cx="308.588" cy="308.588" r="8.81679" fill="#C4C4C4"/>
<circle cx="308.588" cy="394.237" r="8.81679" fill="#C4C4C4"/>
<circle cx="308.588" cy="94.4657" r="8.81679" fill="#C4C4C4"/>
<circle cx="308.588" cy="8.81685" r="8.81679" fill="#C4C4C4"/>
<circle cx="308.588" cy="180.114" r="8.81679" fill="#C4C4C4"/>
<circle cx="308.588" cy="265.763" r="8.81679" fill="#C4C4C4"/>
<circle cx="308.588" cy="351.412" r="8.81679" fill="#C4C4C4"/>
<circle cx="651.183" cy="137.29" r="8.81679" fill="#C4C4C4"/>
<circle cx="651.183" cy="51.6413" r="8.81679" fill="#C4C4C4"/>
<circle cx="651.183" cy="222.939" r="8.81679" fill="#C4C4C4"/>
<circle cx="651.183" cy="308.588" r="8.81679" fill="#C4C4C4"/>
<circle cx="651.183" cy="394.236" r="8.81679" fill="#C4C4C4"/>
<circle cx="651.183" cy="94.4658" r="8.81679" fill="#C4C4C4"/>
<circle cx="651.183" cy="8.81685" r="8.81679" fill="#C4C4C4"/>
<circle cx="651.183" cy="180.115" r="8.81679" fill="#C4C4C4"/>
<circle cx="651.183" cy="265.763" r="8.81679" fill="#C4C4C4"/>
<circle cx="651.183" cy="351.412" r="8.81679" fill="#C4C4C4"/>
</g>
</svg>
